<?xml version="1.0" encoding="iso-8859-1"?>
<!DOCTYPE svg PUBLIC "-//W3C//DTD SVG 1.1//EN" "http://www.w3.org/Graphics/SVG/1.1/DTD/svg11.dtd">
<svg version="1.1" id="Capa_1" xmlns="http://www.w3.org/2000/svg" xmlns:xlink="http://www.w3.org/1999/xlink" x="0px" y="0px" width="49.505px" height="49.505px" viewBox="0 0 49.505 49.505" style="enable-background:new 0 0 49.505 49.505;" xml:space="preserve">
    <g>
        <g>
            <path d="M24.753,15.555c-5.606,0-10.168,4.561-10.168,10.166c0,3.262,3.438,10.071,4.51,12.117
			c-0.001,0.018-0.01,0.032-0.01,0.051v4.295c0,0.553,0.447,1,1,1h9.334c0.553,0,1-0.447,1-1v-3.76
			c0.018-0.027,0.041-0.051,0.057-0.081c0.182-0.354,4.443-8.731,4.443-12.622C34.919,20.115,30.359,15.555,24.753,15.555z
			 M28.419,41.184h-7.334v-2.295h7.334V41.184z M28.968,36.889h-8.113c-1.41-2.699-4.27-8.685-4.27-11.168
			c0-4.503,3.664-8.166,8.168-8.166c4.503,0,8.166,3.663,8.166,8.166C32.919,28.352,30.283,34.229,28.968,36.889z" />
            <path d="M26.96,43.669h-4.416c-0.553,0-1,0.447-1,1c0,0.554,0.447,1,1,1h4.416c0.553,0,1-0.446,1-1
			C27.96,44.116,27.513,43.669,26.96,43.669z" />
            <path d="M25.753,10.204V4.836c0-0.553-0.447-1-1-1c-0.553,0-1,0.447-1,1v5.368c0,0.553,0.447,1,1,1
			C25.306,11.204,25.753,10.757,25.753,10.204z" />
            <path d="M8.654,11.09c-0.391-0.391-1.023-0.391-1.414,0c-0.039,0.038-0.056,0.088-0.087,0.131
			c-0.041,0.03-0.088,0.048-0.125,0.085c-0.386,0.396-0.378,1.028,0.018,1.414l3.842,3.748c0.194,0.189,0.446,0.284,0.698,0.284
			c0.26,0,0.52-0.101,0.716-0.302c0.026-0.027,0.036-0.063,0.06-0.092c0.028-0.022,0.062-0.032,0.088-0.059
			c0.391-0.391,0.391-1.023,0-1.414L8.654,11.09z" />
            <path d="M42.267,11.09c-0.391-0.391-1.022-0.391-1.414,0l-3.797,3.796c-0.391,0.391-0.391,1.023,0,1.414
			c0.195,0.195,0.451,0.293,0.707,0.293s0.513-0.098,0.707-0.293l3.797-3.796C42.658,12.113,42.658,11.48,42.267,11.09z" />
            <path d="M35.159,6.129c-0.501-0.235-1.097-0.014-1.327,0.487l-2.256,4.871c-0.232,0.501-0.016,1.096,0.486,1.327
			c0.137,0.063,0.278,0.093,0.42,0.093c0.378,0,0.738-0.215,0.907-0.58l2.256-4.871C35.879,6.955,35.661,6.36,35.159,6.129z" />
            <path d="M18.029,12.477c0.122,0,0.245-0.022,0.365-0.069c0.515-0.201,0.768-0.782,0.565-1.296l-1.961-4.997
			C16.797,5.6,16.215,5.349,15.702,5.55c-0.515,0.201-0.768,0.782-0.565,1.296l1.961,4.997
			C17.252,12.236,17.629,12.477,18.029,12.477z" />
            <path d="M7.071,23.419c0.11,0.038,0.223,0.057,0.333,0.057c0.412,0,0.798-0.257,0.943-0.667c0.184-0.521-0.09-1.092-0.61-1.276
			l-5.063-1.788c-0.521-0.182-1.092,0.09-1.276,0.61c-0.184,0.521,0.09,1.092,0.61,1.276L7.071,23.419z" />
            <path d="M47.496,35.576l-5.063-1.788c-0.522-0.183-1.092,0.09-1.275,0.61c-0.185,0.521,0.09,1.092,0.609,1.275l5.063,1.788
			c0.11,0.038,0.223,0.058,0.333,0.058c0.412,0,0.798-0.256,0.943-0.668C48.29,36.332,48.017,35.761,47.496,35.576z" />
            <path d="M7.72,35.635L2.875,37.95c-0.498,0.237-0.709,0.835-0.471,1.334c0.172,0.358,0.53,0.567,0.903,0.567
			c0.145,0,0.291-0.031,0.431-0.098l4.844-2.314c0.498-0.238,0.709-0.836,0.471-1.334C8.815,35.607,8.219,35.396,7.72,35.635z" />
            <path d="M41.784,21.572l4.844-2.315c0.498-0.238,0.709-0.835,0.471-1.334c-0.237-0.498-0.835-0.71-1.334-0.471l-4.844,2.315
			c-0.498,0.238-0.709,0.835-0.471,1.334c0.172,0.358,0.529,0.568,0.902,0.568C41.498,21.67,41.645,21.639,41.784,21.572z" />
            <path d="M7.364,29.204c-0.019-0.552-0.484-0.986-1.033-0.965l-5.365,0.185c-0.552,0.02-0.984,0.48-0.965,1.033
			c0.019,0.54,0.462,0.966,0.998,0.966c0.012,0,0.023,0,0.035-0.001l5.365-0.186C6.95,30.219,7.383,29.756,7.364,29.204z" />
            <path d="M48.471,26.785l-5.364,0.186c-0.554,0.02-0.984,0.481-0.966,1.033c0.02,0.541,0.462,0.966,0.998,0.966
			c0.013,0,0.023,0,0.035-0.001l5.365-0.186c0.553-0.02,0.984-0.481,0.965-1.033C49.485,27.197,49.018,26.757,48.471,26.785z" />
        </g>
    </g>
</svg>